<svg width="24" height="24" viewBox="0 0 24 24" fill="none" xmlns="http://www.w3.org/2000/svg">
<path d="M20.9732 15.1633C20.7633 13.6327 20.4484 11.3878 20.1336 9.7551C20.0286 9.04082 19.8187 8.22449 19.5039 7.5102C18.6643 4.2449 15.5158 2 12.0524 2C8.48414 2 5.33564 4.2449 4.49604 7.40816C4.28614 8.22449 4.07624 9.04082 3.86634 9.7551C3.55149 11.3878 3.23664 13.6327 3.02674 15.1633C2.81684 16.5918 3.86634 17.9184 5.33564 18.2245C6.38514 18.4286 7.74949 18.5306 9.11384 18.7347V19.1429C9.11384 20.6735 10.3732 22 12.0524 22C13.6267 22 14.991 20.7755 14.991 19.1429V18.7347C16.3554 18.6327 17.6148 18.4286 18.7692 18.2245C20.1336 17.9184 21.1831 16.5918 20.9732 15.1633ZM13.3118 19.1429C13.3118 19.8571 12.6821 20.3673 12.0524 20.3673C11.4227 20.3673 10.6881 19.7551 10.6881 19.1429V18.8367C11.1079 18.8367 11.6326 18.8367 12.0524 18.8367C12.4722 18.8367 12.892 18.8367 13.3118 18.8367V19.1429Z" fill="#030D45"/>
</svg>
