<svg width="24" height="24" viewBox="0 0 24 24" fill="none" xmlns="http://www.w3.org/2000/svg">
<path d="M19.6883 4.8572C19.5844 3.53067 18.5455 2.40822 17.1948 2.30618C15.7403 2.20414 13.5584 2.00006 12 2.00006C10.4416 2.00006 8.25974 2.20414 6.80519 2.40822C5.45455 2.51026 4.41558 3.53067 4.31169 4.8572C4.20779 6.48986 4 9.65312 4 12.0001C4 14.245 4.20779 17.4082 4.31169 19.1429C4.41558 20.4694 5.45455 21.5919 6.80519 21.6939C8.25974 21.796 10.4416 22.0001 12 22.0001C13.5584 22.0001 15.7403 21.796 17.1948 21.6939C18.5455 21.5919 19.5844 20.4694 19.6883 19.1429C19.7922 17.5103 20 14.347 20 12.0001C20 9.65312 19.7922 6.5919 19.6883 4.8572ZM8.88312 9.14292H12C12.4156 9.14292 12.8312 9.44904 12.8312 9.95925C12.8312 10.4694 12.5195 10.7756 12 10.7756H8.88312C8.46753 10.7756 8.05195 10.4694 8.05195 9.95925C8.05195 9.44904 8.46753 9.14292 8.88312 9.14292ZM15.1169 14.8572H8.88312C8.46753 14.8572 8.05195 14.5511 8.05195 14.0409C8.05195 13.5307 8.36364 13.2246 8.88312 13.2246H15.1169C15.5325 13.2246 15.9481 13.5307 15.9481 14.0409C15.9481 14.5511 15.5325 14.8572 15.1169 14.8572Z" fill="#030D45"/>
</svg>
