<svg width="24" height="24" viewBox="0 0 24 24" fill="none" xmlns="http://www.w3.org/2000/svg">
<path d="M12 2C6.4898 2 2 6.4898 2 12C2 13.5306 2.30612 15.0612 3.02041 16.3878V20.1633C3.02041 20.5714 3.32653 20.9796 3.83673 20.9796H7.61225C8.93878 21.6939 10.4694 22 12 22C17.5102 22 22 17.5102 22 12C22 6.4898 17.5102 2 12 2ZM8.93878 13.0204C8.42857 13.0204 7.91837 12.5102 7.91837 12C7.91837 11.4898 8.42857 10.9796 8.93878 10.9796C9.44898 10.9796 9.95918 11.4898 9.95918 12C9.95918 12.5102 9.44898 13.0204 8.93878 13.0204ZM12 13.0204C11.4898 13.0204 10.9796 12.5102 10.9796 12C10.9796 11.4898 11.4898 10.9796 12 10.9796C12.5102 10.9796 13.0204 11.4898 13.0204 12C13.0204 12.5102 12.5102 13.0204 12 13.0204ZM15.0612 13.0204C14.551 13.0204 14.0408 12.5102 14.0408 12C14.0408 11.4898 14.551 10.9796 15.0612 10.9796C15.5714 10.9796 16.0816 11.4898 16.0816 12C16.0816 12.5102 15.5714 13.0204 15.0612 13.0204Z" fill="#030D45"/>
</svg>
