<svg width="48" height="47" viewBox="0 0 48 47" fill="none" xmlns="http://www.w3.org/2000/svg">
<path d="M24.1242 0.0248413C11.3102 0.0248413 0.82608 10.509 0.82608 23.323C0.82608 36.137 11.3102 46.6211 24.1242 46.6211C36.9382 46.6211 47.4224 36.137 47.4224 23.323C47.4224 10.509 36.9382 0.0248413 24.1242 0.0248413ZM43.3452 22.1581C38.2972 21.3815 33.8318 21.3815 29.5604 21.9639C29.1721 20.799 28.5897 19.8283 28.0072 18.6634C32.4727 16.7218 36.1616 14.0037 38.6856 10.7032C41.4037 14.0037 43.151 17.8867 43.3452 22.1581ZM35.7733 8.17919C33.4435 11.2856 30.1429 13.6154 26.0657 15.3628C24.1242 11.6739 21.9886 8.17919 19.4646 4.68447C21.0178 4.29617 22.571 4.10202 24.1242 4.10202C28.5897 4.10202 32.6669 5.65522 35.7733 8.17919ZM15.3874 6.23768C17.9114 9.53825 20.2412 13.033 22.1827 16.7218C17.5231 18.0809 11.8927 18.6633 5.48571 18.8575C6.84477 13.2271 10.5336 8.76164 15.3874 6.23768ZM4.90325 23.323V22.7405C12.281 22.7405 18.8821 21.9639 24.1242 20.2166C24.5125 21.1873 25.095 22.1581 25.4833 22.9347C18.8821 25.0703 13.4459 29.1475 9.36873 35.5545C6.65061 32.2539 4.90325 27.9826 4.90325 23.323ZM12.281 38.4668C16.164 32.4481 21.0178 28.5651 27.0365 26.8177C28.7838 31.4773 30.1429 36.3311 30.9195 41.379C24.5125 43.7088 17.5231 42.5439 12.281 38.4668ZM34.8025 39.2434C34.0259 34.5837 32.6669 30.1183 31.1137 25.8469C34.8025 25.2645 38.6855 25.4586 43.151 26.2352C42.1803 31.6715 39.268 36.3311 34.8025 39.2434Z" fill="white"/>
</svg>
