<svg width="24" height="24" viewBox="0 0 24 24" fill="none" xmlns="http://www.w3.org/2000/svg">
<path d="M22 8.58527V17.0731C22 18.4389 20.8733 19.6097 19.4394 19.7072C17.2884 19.9023 14.3181 19.9999 12.0648 19.9999C9.81147 19.9999 6.84116 19.8048 4.69025 19.7072C3.25631 19.6097 2.12964 18.4389 2.12964 17.0731V8.58527L3.666 9.36576L10.7333 13.0731C11.143 13.2682 11.6551 13.3658 12.0648 13.3658C12.4745 13.3658 12.9866 13.2682 13.3963 13.0731L20.4636 9.36576L22 8.58527Z" fill="#030D45"/>
<path d="M21.8976 6.43898C21.8976 6.6341 21.7952 6.92678 21.5903 7.02434L20.3612 7.60971L12.577 11.7073C12.1673 11.9024 11.7576 11.9024 11.3479 11.7073L2.33452 7.02434C2.12967 6.92678 1.92482 6.73166 2.02724 6.53654C2.23209 5.36581 3.25634 4.3902 4.58785 4.29264C6.73877 4.09752 9.70907 3.99995 11.9624 3.99995C14.2157 3.99995 17.2885 4.19508 19.337 4.29264C20.6685 4.3902 21.6927 5.26825 21.8976 6.43898Z" fill="#030D45"/>
</svg>
