<svg width="24" height="24" viewBox="0 0 24 24" fill="none" xmlns="http://www.w3.org/2000/svg">
<path d="M19.954 8.87175C19.954 8.56406 19.954 8.35893 19.954 8.1538C19.7468 4.87175 17.1568 2.20508 13.8417 1.99995C13.2201 1.99995 12.5986 1.99995 12.0806 1.99995C10.5266 1.99995 8.35108 2.20508 6.90072 2.30765C5.45036 2.41021 4.41439 3.43585 4.31079 4.76919C4.20719 6.41021 4 9.5897 4 11.9487C4 14.2051 4.20719 17.3846 4.31079 19.1282C4.41439 20.4615 5.45036 21.5897 6.79712 21.6923C8.24748 21.7948 10.423 22 11.977 22C13.5309 22 15.7065 21.7948 17.1568 21.6923C18.5036 21.5897 19.5396 20.4615 19.6432 19.1282C19.7468 17.4871 19.954 14.3076 19.954 11.9487C20.0576 11.1282 19.954 10.1025 19.954 8.87175ZM8.86906 13.1794H10.941C11.3554 13.1794 11.7698 13.4871 11.7698 14C11.7698 14.5128 11.459 14.8205 10.941 14.8205H8.86906C8.45468 14.8205 8.04029 14.5128 8.04029 14C8.04029 13.4871 8.45468 13.1794 8.86906 13.1794ZM13.0129 17.8974H8.86906C8.45468 17.8974 8.04029 17.5897 8.04029 17.0769C8.04029 16.5641 8.35108 16.2564 8.86906 16.2564H13.0129C13.4273 16.2564 13.8417 16.5641 13.8417 17.0769C13.8417 17.5897 13.4273 17.8974 13.0129 17.8974ZM15.0849 8.05124C14.3597 8.05124 13.8417 7.43585 13.8417 6.82047V3.53842C16.2245 3.74354 18.1928 5.5897 18.4 8.05124H15.0849Z" fill="#030D45"/>
</svg>
