<svg width="24" height="24" viewBox="0 0 24 24" fill="none" xmlns="http://www.w3.org/2000/svg">
<path d="M19.954 8.87175C19.954 8.56405 19.954 8.35893 19.954 8.1538C19.7468 4.87175 17.1568 2.20508 13.8417 1.99995C13.2201 1.99995 12.5986 1.99995 12.0806 1.99995C10.5266 1.99995 8.35108 2.20508 6.90072 2.30764C5.45036 2.41021 4.41439 3.43585 4.31079 4.76918C4.20719 6.41021 4 9.58969 4 11.9487C4 14.2051 4.20719 17.3846 4.31079 19.1282C4.41439 20.4615 5.45036 21.5897 6.79712 21.6923C8.24748 21.7948 10.423 22 11.977 22C13.5309 22 15.7065 21.7948 17.1568 21.6923C18.5036 21.5897 19.5396 20.4615 19.6432 19.1282C19.7468 17.4871 19.954 14.3076 19.954 11.9487C20.0576 11.1282 19.954 10.1025 19.954 8.87175ZM13.0129 15.8461H11.7698V17.0769C11.7698 17.4871 11.459 17.8974 10.941 17.8974C10.423 17.8974 10.1122 17.5897 10.1122 17.0769V15.8461H8.86906C8.45468 15.8461 8.04029 15.5384 8.04029 15.0256C8.04029 14.5128 8.35108 14.2051 8.86906 14.2051H10.1122V12.9743C10.1122 12.5641 10.423 12.1538 10.941 12.1538C11.459 12.1538 11.7698 12.4615 11.7698 12.9743V14.2051H13.0129C13.4273 14.2051 13.8417 14.5128 13.8417 15.0256C13.8417 15.5384 13.4273 15.8461 13.0129 15.8461ZM15.0849 8.05123C14.3597 8.05123 13.8417 7.43585 13.8417 6.82046V3.53841C16.2245 3.74354 18.1928 5.58969 18.4 8.05123H15.0849Z" fill="#030D45"/>
</svg>
