<svg width="24" height="24" viewBox="0 0 24 24" fill="none" xmlns="http://www.w3.org/2000/svg">
<path d="M21.631 10.3L18.2854 4.3C17.695 3.2 16.5141 2.5 15.3333 2.5H8.74047C7.46126 2.5 6.37884 3.2 5.78844 4.3L2.4428 10.3C1.8524 11.4 1.8524 12.7 2.4428 13.7L5.78844 19.7C6.37884 20.8 7.55966 21.5 8.74047 21.5H15.3333C16.6125 21.5 17.695 20.8 18.2854 19.7L21.631 13.7C22.123 12.7 22.123 11.3 21.631 10.3ZM11.9877 15.8C9.92128 15.8 8.24846 14.1 8.24846 12C8.24846 9.9 9.92128 8.2 11.9877 8.2C14.0541 8.2 15.7269 9.9 15.7269 12C15.7269 14.1 14.0541 15.8 11.9877 15.8Z" fill="#030D45"/>
</svg>
