<svg width="24" height="24" viewBox="0 0 24 24" fill="none" xmlns="http://www.w3.org/2000/svg">
<path d="M21.6907 4.8866C21.5876 3.54639 20.5567 2.41237 19.1134 2.30928C17.0515 2.10309 14.1649 2 12 2C9.83505 2 6.94845 2.10309 4.8866 2.30928C4.16495 2.30928 3.54639 2.61856 3.13402 3.13402C2.72165 3.64948 2.41237 4.16495 2.30928 4.8866C2.10309 6.94845 2 9.83505 2 12C2 14.1649 2.20619 17.0515 2.30928 19.1134C2.41237 20.4536 3.4433 21.5876 4.8866 21.6907C6.94845 21.8969 9.83505 22 12 22C14.1649 22 17.0515 21.7938 19.1134 21.6907C20.4536 21.5876 21.5876 20.5567 21.6907 19.1134C21.8969 17.0515 22 14.1649 22 12C22 9.83505 21.8969 6.94845 21.6907 4.8866ZM8.70103 16.1237C8.70103 16.5361 8.39175 16.9485 7.87629 16.9485C7.36082 16.9485 7.05155 16.5361 7.05155 16.1237V7.87629C7.05155 7.46392 7.36082 7.05155 7.87629 7.05155C8.39175 7.05155 8.70103 7.46392 8.70103 7.87629V16.1237ZM12.8247 16.1237C12.8247 16.5361 12.5155 16.9485 12 16.9485C11.4845 16.9485 11.1753 16.6392 11.1753 16.1237V12C11.1753 11.5876 11.4845 11.1753 12 11.1753C12.5155 11.1753 12.8247 11.4845 12.8247 12V16.1237ZM16.9485 16.1237C16.9485 16.5361 16.6392 16.9485 16.1237 16.9485C15.6082 16.9485 15.299 16.6392 15.299 16.1237V7.87629C15.299 7.46392 15.6082 7.05155 16.1237 7.05155C16.6392 7.05155 16.9485 7.36082 16.9485 7.87629V16.1237Z" fill="#030D45"/>
</svg>
