<svg width="24" height="24" viewBox="0 0 24 24" fill="none" xmlns="http://www.w3.org/2000/svg">
<path d="M15.8513 11.6882C16.0596 11.7921 16.372 11.7921 16.6845 11.7921C18.5591 11.7921 20.1213 10.2336 20.1213 8.36349C20.1213 6.49336 18.5591 4.93492 16.6845 4.93492C16.5803 4.93492 16.5803 4.93492 16.4762 4.93492C17.1011 5.76609 17.4135 6.80505 17.4135 7.94791C17.4135 9.29855 16.8928 10.6492 15.8513 11.6882Z" fill="#030D45"/>
<path d="M18.0383 13.1429H17.3093C18.6632 14.1818 19.4964 15.8442 19.4964 17.7143C19.4964 18.1299 19.3922 18.5455 19.2881 18.961C20.3295 18.7533 20.9544 18.5455 21.371 18.3377C21.7876 18.1299 21.9959 17.6104 21.9959 17.0909C22.1 14.9091 20.2254 13.1429 18.0383 13.1429Z" fill="#030D45"/>
<path d="M7.31142 11.7922C7.62386 11.7922 7.83215 11.7922 8.14458 11.6883C7.20728 10.6494 6.58241 9.4026 6.58241 7.84416C6.58241 6.7013 6.89484 5.66234 7.51971 4.83117C7.51971 4.83117 7.41557 4.83117 7.31142 4.83117C5.43681 4.83117 3.87463 6.38962 3.87463 8.25975C3.87463 10.1299 5.33267 11.7922 7.31142 11.7922Z" fill="#030D45"/>
<path d="M6.58238 13.1429H5.95751C3.77047 13.1429 2 14.9091 2 17.0909C2 17.6104 2.20829 18.1299 2.62487 18.3377C3.04145 18.5455 3.66632 18.8571 4.70777 18.961C4.60363 18.5455 4.49948 18.1299 4.49948 17.7143C4.49948 15.9481 5.2285 14.2857 6.58238 13.1429Z" fill="#030D45"/>
<path d="M9.60264 10.8571C10.2275 11.3766 11.0607 11.6883 11.998 11.6883C12.9353 11.6883 13.7684 11.3766 14.3933 10.8571C15.3306 10.1298 15.8513 9.09086 15.8513 7.84411C15.8513 6.90905 15.5389 5.97398 14.914 5.3506C14.185 4.51943 13.1436 3.99995 11.998 3.99995C10.8524 3.99995 9.70679 4.51943 9.08192 5.3506C8.45705 5.97398 8.04047 6.90905 8.04047 7.84411C8.04047 9.09086 8.66534 10.1298 9.60264 10.8571Z" fill="#030D45"/>
<path d="M14.0807 13.3506C13.8724 13.3506 13.6642 13.3506 13.4559 13.3506H10.3315C10.1232 13.3506 9.91493 13.3506 9.70664 13.3506C7.51959 13.6623 5.85327 15.5324 5.85327 17.7142C5.85327 18.3376 6.16571 18.8571 6.58229 19.0649C7.3113 19.4805 8.76933 20 11.7895 20C14.8097 20 16.2678 19.4805 16.9968 19.0649C17.5175 18.7532 17.7258 18.2337 17.7258 17.7142C18.0382 15.5324 16.2678 13.6623 14.0807 13.3506Z" fill="#030D45"/>
</svg>
