<svg width="48" height="39" viewBox="0 0 48 39" fill="none" xmlns="http://www.w3.org/2000/svg">
<path d="M15.4429 38.1059C33.0272 38.1059 42.6435 23.5376 42.6435 10.9053C42.6435 10.4914 42.635 10.0796 42.6159 9.66943C44.4825 8.32014 46.1052 6.6359 47.3851 4.71954C45.6722 5.48057 43.829 5.99305 41.8952 6.22412C43.8688 5.0407 45.3845 3.1678 46.0994 0.935579C44.2519 2.03102 42.2062 2.82703 40.0291 3.2563C38.284 1.39824 35.7995 0.236023 33.0505 0.236023C27.7705 0.236023 23.4889 4.51763 23.4889 9.79504C23.4889 10.5455 23.5731 11.2747 23.7364 11.9748C15.7916 11.5757 8.74627 7.77109 4.03169 1.98703C3.20971 3.39939 2.73645 5.04123 2.73645 6.79171C2.73645 10.1082 4.42439 13.0363 6.99102 14.7497C5.42285 14.7015 3.94954 14.2701 2.66119 13.5536C2.65907 13.5933 2.65907 13.6336 2.65907 13.6755C2.65907 18.3058 5.95494 22.1714 10.3288 23.0474C9.52585 23.2663 8.68108 23.3839 7.80876 23.3839C7.19294 23.3839 6.59407 23.3224 6.01164 23.2117C7.22844 27.0094 10.758 29.7737 14.9426 29.8516C11.6701 32.4161 7.54801 33.944 3.06927 33.944C2.29816 33.944 1.53713 33.9 0.788818 33.8115C5.01954 36.5229 10.0431 38.1059 15.4429 38.1059Z" fill="white"/>
</svg>
